<svg width="61" height="60" viewBox="0 0 61 60" fill="none" xmlns="http://www.w3.org/2000/svg">
<g id="Frame">
<path id="Vector" d="M8.2998 51V9C8.2998 8.60218 8.45784 8.22064 8.73914 7.93934C9.02045 7.65804 9.40198 7.5 9.7998 7.5H51.7998C52.1976 7.5 52.5792 7.65804 52.8605 7.93934C53.1418 8.22064 53.2998 8.60218 53.2998 9V51C53.2998 51.3978 53.1418 51.7794 52.8605 52.0607C52.5792 52.342 52.1976 52.5 51.7998 52.5H9.7998C9.40198 52.5 9.02045 52.342 8.73914 52.0607C8.45784 51.7794 8.2998 51.3978 8.2998 51Z" stroke="#4F754A" stroke-width="1.5"/>
<path id="Vector_2" d="M38.2998 21.25C36.5873 19.5375 33.5723 18.3475 30.7998 18.2725M30.7998 18.2725C27.4998 18.1825 24.5498 19.675 24.5498 23.75C24.5498 31.25 38.2998 27.5 38.2998 35C38.2998 39.2775 34.6398 41.115 30.7998 40.9775M30.7998 18.2725V13.75M23.2998 37.5C24.9098 39.65 27.9073 40.875 30.7998 40.9775M30.7998 40.9775V46.25" stroke="#4F754A" stroke-width="1.5" stroke-linecap="round" stroke-linejoin="round"/>
</g>
</svg>
