<svg width="61" height="60" viewBox="0 0 61 60" fill="none" xmlns="http://www.w3.org/2000/svg">
<g id="Frame">
<path id="Vector" d="M7.7002 47.5V12.5C7.7002 11.1739 8.22698 9.90215 9.16466 8.96447C10.1023 8.02678 11.3741 7.5 12.7002 7.5H47.7002C49.0263 7.5 50.298 8.02678 51.2357 8.96447C52.1734 9.90215 52.7002 11.1739 52.7002 12.5V47.5C52.7002 48.8261 52.1734 50.0979 51.2357 51.0355C50.298 51.9732 49.0263 52.5 47.7002 52.5H12.7002C11.3741 52.5 10.1023 51.9732 9.16466 51.0355C8.22698 50.0979 7.7002 48.8261 7.7002 47.5Z" stroke="#4F754A" stroke-width="1.5"/>
<path id="Vector_2" d="M34.8405 34.625C35.6597 33.8335 36.313 32.8867 36.7621 31.8398C37.2112 30.7929 37.4472 29.667 37.4563 28.5279C37.4653 27.3888 37.2472 26.2594 36.8148 25.2055C36.3823 24.1517 35.7441 23.1946 34.9376 22.3902C34.131 21.5857 33.1722 20.9502 32.1172 20.5205C31.0622 20.0909 29.9321 19.8758 28.793 19.8879C27.654 19.9 26.5287 20.139 25.4831 20.5909C24.4374 21.0429 23.4923 21.6987 22.703 22.52C21.1467 24.1395 20.2882 26.305 20.312 28.5509C20.3358 30.7968 21.2402 32.9437 22.8305 34.5297C24.4208 36.1158 26.5701 37.0144 28.816 37.0322C31.062 37.05 33.2252 36.1856 34.8405 34.625ZM34.8405 34.625L40.2005 40" stroke="#43633E" stroke-width="1.5" stroke-linecap="round" stroke-linejoin="round"/>
</g>
</svg>
