<svg width="61" height="60" viewBox="0 0 61 60" fill="none" xmlns="http://www.w3.org/2000/svg">
<g id="Frame">
<path id="Vector" d="M51.8496 51.25L55.5996 55M38.0996 45C38.0996 46.9891 38.8898 48.8968 40.2963 50.3033C41.7028 51.7098 43.6105 52.5 45.5996 52.5C47.5887 52.5 49.4964 51.7098 50.9029 50.3033C52.3094 48.8968 53.0996 46.9891 53.0996 45C53.0996 43.0109 52.3094 41.1032 50.9029 39.6967C49.4964 38.2902 47.5887 37.5 45.5996 37.5C43.6105 37.5 41.7028 38.2902 40.2963 39.6967C38.8898 41.1032 38.0996 43.0109 38.0996 45Z" stroke="#4F754A" stroke-width="1.5" stroke-linecap="round" stroke-linejoin="round"/>
<path id="Vector_2" d="M50.5996 30V14.3725C50.5998 14.1752 50.561 13.9797 50.4855 13.7974C50.41 13.6151 50.2992 13.4495 50.1596 13.31L42.2896 5.44C42.0086 5.15862 41.6273 5.00035 41.2296 5H12.0996C11.7018 5 11.3203 5.15804 11.0389 5.43934C10.7576 5.72064 10.5996 6.10218 10.5996 6.5V53.5C10.5996 53.8978 10.7576 54.2794 11.0389 54.5607C11.3203 54.842 11.7018 55 12.0996 55H28.0996" stroke="#4F754A" stroke-width="1.5" stroke-linecap="round" stroke-linejoin="round"/>
<path id="Vector_3" d="M40.5996 5V13.5C40.5996 13.8978 40.7576 14.2794 41.0389 14.5607C41.3203 14.842 41.7018 15 42.0996 15H50.5996" stroke="#4F754A" stroke-width="1.5" stroke-linecap="round" stroke-linejoin="round"/>
</g>
</svg>
