<svg width="24" height="25" viewBox="0 0 24 25" fill="none" xmlns="http://www.w3.org/2000/svg">
<g id="mail icon">
<path id="Vector" d="M7 12.5L12 16L17 12.5" stroke="#342F2A" stroke-width="1.5" stroke-linecap="round" stroke-linejoin="round"/>
<path id="Vector_2" d="M2 20.5V9.63205C2 9.28668 2.08943 8.94719 2.25959 8.64665C2.42976 8.3461 2.67485 8.09474 2.971 7.91705L10.971 3.11705C11.2818 2.93055 11.6375 2.83203 12 2.83203C12.3625 2.83203 12.7182 2.93055 13.029 3.11705L21.029 7.91705C21.3252 8.09474 21.5702 8.3461 21.7404 8.64665C21.9106 8.94719 22 9.28668 22 9.63205V20.5C22 21.0305 21.7893 21.5392 21.4142 21.9143C21.0391 22.2893 20.5304 22.5 20 22.5H4C3.46957 22.5 2.96086 22.2893 2.58579 21.9143C2.21071 21.5392 2 21.0305 2 20.5Z" stroke="#342F2A" stroke-width="1.5"/>
</g>
</svg>
